<svg xmlns="http://www.w3.org/2000/svg" xmlns:xlink="http://www.w3.org/1999/xlink" width="64" zoomAndPan="magnify" viewBox="0 0 48 48" height="64" preserveAspectRatio="xMidYMid meet" version="1.2"><defs><clipPath id="2e40ea6f96"><path d="M 0.488281 0 L 47.359375 0 L 47.359375 47.019531 L 0.488281 47.019531 Z M 0.488281 0 "/></clipPath><clipPath id="aab59804bd"><path d="M 47.359375 11.019531 L 47.359375 36 C 47.359375 38.921875 46.199219 41.726562 44.132812 43.792969 C 42.066406 45.859375 39.261719 47.019531 36.339844 47.019531 L 11.511719 47.019531 C 8.585938 47.019531 5.785156 45.859375 3.71875 43.792969 C 1.652344 41.726562 0.488281 38.921875 0.488281 36 L 0.488281 11.019531 C 0.488281 8.097656 1.652344 5.292969 3.71875 3.226562 C 5.785156 1.160156 8.585938 0 11.511719 0 L 36.339844 0 C 39.261719 0 42.066406 1.160156 44.132812 3.226562 C 46.199219 5.292969 47.359375 8.097656 47.359375 11.019531 Z M 47.359375 11.019531 "/></clipPath></defs><g id="3b6b1a9568"><g clip-rule="nonzero" clip-path="url(#2e40ea6f96)"><g clip-rule="nonzero" clip-path="url(#aab59804bd)"><path style=" stroke:none;fill-rule:nonzero;fill:#000000;fill-opacity:1;" d="M 0.488281 0 L 47.359375 0 L 47.359375 47.054688 L 0.488281 47.054688 Z M 0.488281 0 "/></g></g><g style="fill:#ffffff;fill-opacity:1;"><g transform="translate(8.994289, 32.47628)"><path style="stroke:none" d="M 10.484375 0.28125 C 7.753906 0.28125 5.734375 -0.363281 4.421875 -1.65625 C 3.109375 -2.945312 2.453125 -4.863281 2.453125 -7.40625 L 2.453125 -19.765625 L 6.265625 -19.765625 L 6.265625 -7.4375 C 6.265625 -5.988281 6.613281 -4.90625 7.3125 -4.1875 C 8.007812 -3.46875 9.066406 -3.109375 10.484375 -3.109375 C 13.285156 -3.109375 14.6875 -4.550781 14.6875 -7.4375 L 14.6875 -19.765625 L 18.515625 -19.765625 L 18.515625 -7.40625 C 18.515625 -4.863281 17.851562 -2.945312 16.53125 -1.65625 C 15.21875 -0.363281 13.203125 0.28125 10.484375 0.28125 Z M 10.484375 0.28125 "/></g><g transform="translate(29.94373, 32.47628)"><path style="stroke:none" d="M 6.46875 0 L 2.5625 0 L 2.5625 -19.765625 L 6.46875 -19.765625 Z M 6.46875 0 "/></g></g></g></svg>